HIERARCHY
ROOT Hips
{
	OFFSET 0.000000 0.000000 0.000000
	CHANNELS 6 Xposition Yposition Zposition Xrotation Yrotation Zrotation
	JOINT LeftUpLeg_virtual
	{
		OFFSET 0.000000 0.000000 0.000000
		CHANNELS 3 Xrotation Yrotation Zrotation
		JOINT LeftUpLeg
		{
			OFFSET 11.394100 -6.187798 -0.413800
			CHANNELS 3 Xrotation Yrotation Zrotation
			JOINT LeftLeg
			{
				OFFSET 0.430247 -32.302673 3.732800
				CHANNELS 3 Xrotation Yrotation Zrotation
				JOINT LeftFoot
				{
					OFFSET -0.430247 -48.264931 -6.423300
					CHANNELS 3 Xrotation Yrotation Zrotation
					JOINT LeftToeBase
					{
						OFFSET 4.230900 -16.068199 23.438400
						CHANNELS 3 Xrotation Yrotation Zrotation
						JOINT LeftToe_End
						{
							OFFSET 4.510700 0.695400 19.974600
							CHANNELS 3 Xrotation Yrotation Zrotation
							End Site
							{
								OFFSET 0 0 0
							}
						}
					}
				}
			}
		}
	}
	JOINT RightUpLeg_virtual
	{
		OFFSET 0.000000 0.000000 0.000000
		CHANNELS 3 Xrotation Yrotation Zrotation
		JOINT RightUpLeg
		{
			OFFSET -11.333700 -6.187798 -0.413800
			CHANNELS 3 Xrotation Yrotation Zrotation
			JOINT RightLeg
			{
				OFFSET -0.430392 -32.302628 3.733000
				CHANNELS 3 Xrotation Yrotation Zrotation
				JOINT RightFoot
				{
					OFFSET 0.430392 -48.264973 -6.423500
					CHANNELS 3 Xrotation Yrotation Zrotation
					JOINT RightToeBase
					{
						OFFSET -4.230900 -16.068199 23.438400
						CHANNELS 3 Xrotation Yrotation Zrotation
						JOINT RightToe_End
						{
							OFFSET -4.510700 0.695400 19.974600
							CHANNELS 3 Xrotation Yrotation Zrotation
							End Site
							{
								OFFSET 0 0 0
							}
						}
					}
				}
			}
		}
	}
	JOINT Spine_virtual
	{
		OFFSET 0.000000 0.000000 0.000000
		CHANNELS 3 Xrotation Yrotation Zrotation
		JOINT Spine
		{
			OFFSET -0.002400 12.777504 0.315300
			CHANNELS 3 Xrotation Yrotation Zrotation
			JOINT Spine1
			{
				OFFSET -0.002067 5.816869 0.032633
				CHANNELS 3 Xrotation Yrotation Zrotation
				JOINT Spine1_split
				{
					OFFSET -0.002067 5.816869 0.032633
					CHANNELS 3 Xrotation Yrotation Zrotation
					JOINT Spine2
					{
						OFFSET -0.002067 5.816869 0.032633
						CHANNELS 3 Xrotation Yrotation Zrotation
						JOINT Neck_virtual
						{
							OFFSET 0.000000 0.000000 0.000000
							CHANNELS 3 Xrotation Yrotation Zrotation
							JOINT Neck
							{
								OFFSET -0.003700 21.199493 -0.826900
								CHANNELS 3 Xrotation Yrotation Zrotation
								JOINT Head
								{
									OFFSET 0.000000 20.442200 4.834800
									CHANNELS 3 Xrotation Yrotation Zrotation
									JOINT HeadTop_End
									{
										OFFSET 0.000000 34.668396 4.968400
										CHANNELS 3 Xrotation Yrotation Zrotation
										End Site
										{
											OFFSET 0 0 0
										}
									}
								}
							}
						}
						JOINT LeftShoulder_virtual
						{
							OFFSET 0.000000 0.000000 0.000000
							CHANNELS 3 Xrotation Yrotation Zrotation
							JOINT LeftShoulder
							{
								OFFSET 3.288150 8.794197 -1.372250
								CHANNELS 3 Xrotation Yrotation Zrotation
								JOINT LeftShoulder_split
								{
									OFFSET 3.288150 8.794197 -1.372250
									CHANNELS 3 Xrotation Yrotation Zrotation
									JOINT LeftArm
									{
										OFFSET 11.953299 -2.279007 -0.146200
										CHANNELS 3 Xrotation Yrotation Zrotation
										JOINT LeftForeArm
										{
											OFFSET 18.448900 0.000000 0.000000
											CHANNELS 3 Xrotation Yrotation Zrotation
											JOINT LeftHand
											{
												OFFSET 29.527798 0.000000 0.000000
												CHANNELS 3 Xrotation Yrotation Zrotation
												End Site
												{
													OFFSET 0 0 0
												}
											}
										}
									}
								}
							}
						}
						JOINT RightShoulder_virtual
						{
							OFFSET 0.000000 0.000000 0.000000
							CHANNELS 3 Xrotation Yrotation Zrotation
							JOINT RightShoulder
							{
								OFFSET -3.249400 8.794197 -1.372250
								CHANNELS 3 Xrotation Yrotation Zrotation
								JOINT RightShoulder_split
								{
									OFFSET -3.249400 8.794197 -1.372250
									CHANNELS 3 Xrotation Yrotation Zrotation
									JOINT RightArm
									{
										OFFSET -11.953299 -2.279007 -0.146200
										CHANNELS 3 Xrotation Yrotation Zrotation
										JOINT RightForeArm
										{
											OFFSET -18.448900 0.000000 0.000000
											CHANNELS 3 Xrotation Yrotation Zrotation
											JOINT RightHand
											{
												OFFSET -29.527802 0.000000 0.000000
												CHANNELS 3 Xrotation Yrotation Zrotation
												End Site
												{
													OFFSET 0 0 0
												}
											}
										}
									}
								}
							}
						}
					}
				}
			}
		}
	}
}
MOTION
Frames: 4
Frame Time: 0.03333333
1.966972 98.614899 -61.233059 0.000000 0.000000 0.000000 44.889093 -84.679511 44.944964 -29.784850 15.714406 21.832584 33.714903 -1.896840 -5.037806 -6.069972 2.597984 -2.591949 6.585907 -0.267052 -1.197934 0.000000 0.000000 0.000000 63.445129 -85.390321 63.257264 -13.298002 -1.578271 5.101847 21.381161 1.692385 -0.692649 -16.624190 -2.264205 -2.683407 0.447909 -5.354473 -19.506580 0.000000 0.000000 0.000000 42.509987 -81.766203 40.463267 5.272011 2.511626 1.513219 -2.182732 2.117849 -2.725554 0.196765 -0.763144 0.069050 0.000000 0.000000 0.000000 -2.409954 4.230679 -2.164150 -10.191353 23.159553 24.014902 6.044545 0.270572 2.032320 0.000000 0.000000 0.000000 -3.034370 1.277531 -2.279711 1.432840 2.041367 1.181194 0.309043 -0.841912 -0.254497 -3.248924 3.417032 -68.852699 18.147493 -21.126747 -1.711926 0.000000 0.000000 0.000000 -4.890026 1.493231 -1.251158 1.709493 -10.090081 23.380175 -17.483713 -5.768630 -1.520720 24.675377 38.453767 39.135171 11.642327 36.493940 5.241491 0.000000 0.000000 0.000000 
1.855624 98.974556 -63.278210 0.000000 0.000000 0.000000 88.616466 -86.359218 89.284615 -29.430148 10.739351 17.432291 33.180854 -2.279249 -3.992576 -4.465936 2.748159 -4.703512 5.148926 -0.186578 -1.869291 0.000000 0.000000 0.000000 107.952205 -85.784621 108.550318 -13.068286 1.979377 5.660032 20.344663 4.180412 -1.154153 -15.367444 -2.066431 -4.778120 -1.575072 -5.616636 -16.721553 0.000000 0.000000 0.000000 61.565700 -84.077976 60.331587 5.659448 3.320528 1.426415 -1.686867 2.649234 -2.842342 0.170749 -0.772855 0.059446 0.000000 0.000000 0.000000 -1.920649 4.698225 -2.403139 -9.765453 23.242579 22.805822 6.388284 0.957347 3.488909 0.000000 0.000000 0.000000 -2.475614 1.608560 -2.355201 1.034406 1.126969 0.281422 0.914458 -0.575327 0.132533 -1.899651 3.244619 -69.331174 17.982606 -20.333463 -2.241757 0.000000 0.000000 0.000000 -4.591057 1.849360 -1.336492 1.566861 -10.118068 23.414032 -16.998406 -5.439182 -1.116453 24.707296 39.512583 37.773750 11.576580 37.427743 5.649457 0.000000 0.000000 0.000000 
1.593837 99.423340 -65.136795 0.000000 0.000000 0.000000 133.972330 -84.897038 135.245341 -29.711248 5.885540 12.859436 30.905780 -2.614230 -2.479285 -2.634370 2.951485 -7.568563 3.414612 -0.103690 -2.528921 0.000000 0.000000 0.000000 137.495068 -84.183584 138.884998 -12.430009 4.986539 6.145093 19.516089 6.532568 -1.584230 -14.291649 -1.941625 -7.235180 -3.799609 -5.732106 -13.956069 0.000000 0.000000 0.000000 95.268571 -85.081795 94.933182 5.958496 4.058673 1.085151 -1.095055 3.108727 -2.821988 0.146139 -0.684061 0.025240 0.000000 0.000000 0.000000 -1.303057 5.130445 -2.555247 -9.447561 23.701328 21.182075 6.528240 1.783423 5.100766 0.000000 0.000000 0.000000 -1.768987 1.895836 -2.290125 0.597263 0.251831 -0.559221 1.150990 -0.603615 0.233513 -0.259003 3.029921 -69.852017 17.171569 -19.304722 -3.007629 0.000000 0.000000 0.000000 -4.114898 2.181011 -1.314959 1.346297 -10.075741 23.206008 -16.430121 -5.245508 -0.470599 24.329255 40.999430 36.687852 11.195632 37.547835 6.140807 0.000000 0.000000 0.000000 
1.162888 99.800529 -66.946365 0.000000 0.000000 0.000000 151.861087 -82.156172 153.672727 -30.854362 1.662228 8.710181 27.902127 -2.840329 -0.824737 -0.669053 3.230687 -10.995215 2.482167 0.003724 -3.279533 0.000000 0.000000 0.000000 151.543306 -82.087303 153.607048 -11.337507 7.230706 6.683149 19.236784 8.455939 -2.044142 -14.288514 -1.780067 -10.610626 -5.040247 -5.722427 -11.679235 0.000000 0.000000 0.000000 129.708380 -84.020534 130.160087 6.228721 4.700700 0.586412 -0.461521 3.413756 -2.666281 0.094480 -0.565632 0.009971 0.000000 0.000000 0.000000 -0.590660 5.466375 -2.600509 -9.185252 24.370820 19.538810 6.358056 2.603351 6.917260 0.000000 0.000000 0.000000 -0.994829 2.120008 -2.070699 0.161485 -0.427981 -1.168443 1.175274 -0.390192 0.051850 1.565274 3.172654 -70.639449 15.975949 -18.585261 -3.793088 0.000000 0.000000 0.000000 -3.471400 2.440549 -1.208460 1.112899 -9.832402 22.888970 -15.877596 -5.164890 0.065277 23.482571 42.856780 36.081219 10.599603 37.141428 6.653502 0.000000 0.000000 0.000000 
